<svg xmlns="http://www.w3.org/2000/svg" xmlns:xlink="http://www.w3.org/1999/xlink" width="57.01" height="63.155" viewBox="0 0 57.01 63.155">
  <defs>
    <clipPath id="clip-path">
      <rect id="Rectangle_20382" data-name="Rectangle 20382" width="57.01" height="63.155" fill="#3955a2"/>
    </clipPath>
  </defs>
  <g id="Group_59754" data-name="Group 59754" clip-path="url(#clip-path)">
    <path id="Path_69031" data-name="Path 69031" d="M34.579,1.16H7.942a1.025,1.025,0,0,0,0,2.051H26.384a3.074,3.074,0,0,1,3.074,3.071V54.431A3.074,3.074,0,0,1,26.384,57.5H14.091a1.025,1.025,0,0,0,0,2.051H26.384a5.134,5.134,0,0,0,5.02-4.1h1.125A3.074,3.074,0,0,0,35.6,52.383V8.332a1.024,1.024,0,0,0-2.047,0V52.383a1.026,1.026,0,0,1-1.027,1.024H31.505V6.281a5.047,5.047,0,0,0-1.051-3.071h4.125a3.074,3.074,0,0,1,3.074,3.071V54.431A3.074,3.074,0,0,1,34.579,57.5H33.556a1.025,1.025,0,1,0,0,2.051h1.024A5.13,5.13,0,0,0,39.7,54.431V6.281A5.127,5.127,0,0,0,34.579,1.16" transform="translate(16.462 2.758)" fill="#3955a2"/>
    <path id="Path_69032" data-name="Path 69032" d="M34.579,1.16H7.942a1.025,1.025,0,0,0,0,2.051H26.384a3.074,3.074,0,0,1,3.074,3.071V54.431A3.074,3.074,0,0,1,26.384,57.5H14.091a1.025,1.025,0,0,0,0,2.051H26.384a5.134,5.134,0,0,0,5.02-4.1h1.125A3.074,3.074,0,0,0,35.6,52.383V8.332a1.024,1.024,0,0,0-2.047,0V52.383a1.026,1.026,0,0,1-1.027,1.024H31.505V6.281a5.047,5.047,0,0,0-1.051-3.071h4.125a3.074,3.074,0,0,1,3.074,3.071V54.431A3.074,3.074,0,0,1,34.579,57.5H33.556a1.025,1.025,0,1,0,0,2.051h1.024A5.13,5.13,0,0,0,39.7,54.431V6.281A5.127,5.127,0,0,0,34.579,1.16Z" transform="translate(16.462 2.758)" fill="#3955a2" stroke="#fff" stroke-miterlimit="10" stroke-width="0.5"/>
    <path id="Path_69033" data-name="Path 69033" d="M28.12,15.459a1.027,1.027,0,0,0-.828-.7l-7.253-1.054L16.8,7.132a1.061,1.061,0,0,0-1.834,0L11.715,13.7,4.462,14.756a1.025,1.025,0,0,0-.564,1.75l5.25,5.115L7.9,28.847a1.025,1.025,0,0,0,1.49,1.078l6.479-3.409,6.489,3.409a1.025,1.025,0,0,0,1.486-1.078l-1.24-7.226,5.253-5.115a1.03,1.03,0,0,0,.257-1.047M20.8,20.529a1.01,1.01,0,0,0-.3.905l.98,5.709-5.125-2.692a1.012,1.012,0,0,0-.953,0l-5.118,2.692.98-5.709a1.046,1.046,0,0,0-.294-.905L6.81,16.482l5.736-.834a1.014,1.014,0,0,0,.77-.561L15.874,9.9l2.567,5.2a1.019,1.019,0,0,0,.767.561l5.736.831Z" transform="translate(8.53 15.711)" fill="#3955a2"/>
    <path id="Path_69034" data-name="Path 69034" d="M28.12,15.459a1.027,1.027,0,0,0-.828-.7l-7.253-1.054L16.8,7.132a1.061,1.061,0,0,0-1.834,0L11.715,13.7,4.462,14.756a1.025,1.025,0,0,0-.564,1.75l5.25,5.115L7.9,28.847a1.025,1.025,0,0,0,1.49,1.078l6.479-3.409,6.489,3.409a1.025,1.025,0,0,0,1.486-1.078l-1.24-7.226,5.253-5.115A1.03,1.03,0,0,0,28.12,15.459ZM20.8,20.529a1.01,1.01,0,0,0-.3.905l.98,5.709-5.125-2.692a1.012,1.012,0,0,0-.953,0l-5.118,2.692.98-5.709a1.046,1.046,0,0,0-.294-.905L6.81,16.482l5.736-.834a1.014,1.014,0,0,0,.77-.561L15.874,9.9l2.567,5.2a1.019,1.019,0,0,0,.767.561l5.736.831Z" transform="translate(8.53 15.711)" fill="#3955a2" stroke="#fff" stroke-miterlimit="10" stroke-width="0.5"/>
    <path id="Path_69035" data-name="Path 69035" d="M25.86,59.669H5.371A3.072,3.072,0,0,1,2.3,56.595V8.445A3.074,3.074,0,0,1,5.371,5.371H6.395V8.445a1.025,1.025,0,0,0,2.051,0V3.324A1.021,1.021,0,0,1,9.469,2.3h8.2a1.023,1.023,0,0,1,1.024,1.024V17.8l-4.554-3.034a1.021,1.021,0,0,0-1.135,0L8.445,17.8V12.543a1.025,1.025,0,0,0-2.051,0v7.172a1.025,1.025,0,0,0,1.024,1.024,1.013,1.013,0,0,0,.571-.172l5.577-3.719,5.577,3.719a1.025,1.025,0,0,0,1.595-.851V3.324A3.074,3.074,0,0,0,17.665.25h-8.2A3.072,3.072,0,0,0,6.395,3.324H5.371A5.127,5.127,0,0,0,.25,8.445V56.595a5.132,5.132,0,0,0,5.121,5.125H25.86a1.025,1.025,0,0,0,0-2.051" transform="translate(0.595 0.594)" fill="#3955a2"/>
    <path id="Path_69036" data-name="Path 69036" d="M25.86,59.669H5.371A3.072,3.072,0,0,1,2.3,56.595V8.445A3.074,3.074,0,0,1,5.371,5.371H6.395V8.445a1.025,1.025,0,0,0,2.051,0V3.324A1.021,1.021,0,0,1,9.469,2.3h8.2a1.023,1.023,0,0,1,1.024,1.024V17.8l-4.554-3.034a1.021,1.021,0,0,0-1.135,0L8.445,17.8V12.543a1.025,1.025,0,0,0-2.051,0v7.172a1.025,1.025,0,0,0,1.024,1.024,1.013,1.013,0,0,0,.571-.172l5.577-3.719,5.577,3.719a1.025,1.025,0,0,0,1.595-.851V3.324A3.074,3.074,0,0,0,17.665.25h-8.2A3.072,3.072,0,0,0,6.395,3.324H5.371A5.127,5.127,0,0,0,.25,8.445V56.595a5.132,5.132,0,0,0,5.121,5.125H25.86a1.025,1.025,0,0,0,0-2.051Z" transform="translate(0.595 0.594)" fill="#3955a2" stroke="#fff" stroke-miterlimit="10" stroke-width="0.5"/>
  </g>
</svg>
