<svg xmlns="http://www.w3.org/2000/svg" width="70.295" height="56.231" viewBox="0 0 70.295 56.231">
  <g id="Group_59752" data-name="Group 59752" transform="translate(-997.968 -2060.811)">
    <path id="Path_69021" data-name="Path 69021" d="M281.376,14.978H280.2a1.172,1.172,0,1,0,0,2.343h1.172a1.172,1.172,0,1,0,0-2.343" transform="translate(729.482 2071.605)" fill="#3955a2"/>
    <path id="Path_69022" data-name="Path 69022" d="M284.44,18.855a1.171,1.171,0,0,0-1.172-1.172h-4.687a1.172,1.172,0,0,0,0,2.343h4.687a1.171,1.171,0,0,0,1.172-1.172" transform="translate(727.591 2074.759)" fill="#3955a2"/>
    <path id="Path_69023" data-name="Path 69023" d="M279.574,21.559a1.171,1.171,0,0,0,1.172,1.172h2.343a1.172,1.172,0,1,0,0-2.343h-2.343a1.171,1.171,0,0,0-1.172,1.172" transform="translate(730.113 2077.911)" fill="#3955a2"/>
    <path id="Path_69024" data-name="Path 69024" d="M308.506,9.748a1.172,1.172,0,0,0,0-2.343H292.1a1.172,1.172,0,0,0,0,2.343Z" transform="translate(743.354 2062.777)" fill="#3955a2"/>
    <path id="Path_69025" data-name="Path 69025" d="M317.606,10.11H288.319a1.172,1.172,0,0,0,0,2.343h29.287a1.172,1.172,0,1,0,0-2.343" transform="translate(738.941 2065.93)" fill="#3955a2"/>
    <path id="Path_69026" data-name="Path 69026" d="M318.777,13.986a1.171,1.171,0,0,0-1.172-1.172H288.319a1.172,1.172,0,0,0,0,2.343h29.287a1.171,1.171,0,0,0,1.172-1.172" transform="translate(738.941 2069.083)" fill="#3955a2"/>
    <path id="Path_69027" data-name="Path 69027" d="M289.942,15.519a1.172,1.172,0,1,0,0,2.343h21.088a1.172,1.172,0,0,0,0-2.343Z" transform="translate(740.833 2072.236)" fill="#3955a2"/>
    <path id="Path_69028" data-name="Path 69028" d="M343.284,21.914a1.171,1.171,0,0,0-1.172,1.172v4.687a5.863,5.863,0,0,1-5.858,5.856H331.57A1.171,1.171,0,0,0,330.4,34.8V47.965L318.8,34.051a1.179,1.179,0,0,0-.9-.422H298.768a5.863,5.863,0,0,1-5.858-5.856V10.2a1.172,1.172,0,0,0-2.343,0V27.772a8.208,8.208,0,0,0,8.2,8.2h9.9a12.911,12.911,0,0,1-9.9,4.687h-3.515a1.177,1.177,0,0,0-.829.342l-7.372,7.372v-7a1.173,1.173,0,0,0-.877-1.135,12.869,12.869,0,0,1,1.072-25.155,1.172,1.172,0,1,0-.39-2.311,15.212,15.212,0,0,0-2.148,29.48V51.2a1.173,1.173,0,0,0,2,.829L295.738,43h3.03a15.278,15.278,0,0,0,12.81-7.03h5.774L330.669,51.95a1.169,1.169,0,0,0,.9.422,1.187,1.187,0,0,0,.4-.069,1.174,1.174,0,0,0,.773-1.1V35.972h3.513a8.208,8.208,0,0,0,8.2-8.2V23.086a1.171,1.171,0,0,0-1.172-1.172" transform="translate(723.805 2064.669)" fill="#3955a2"/>
    <path id="Path_69029" data-name="Path 69029" d="M327.426,3.078H289.937a8.208,8.208,0,0,0-8.2,8.2v1.169a1.172,1.172,0,0,0,2.343,0V11.28a5.863,5.863,0,0,1,5.856-5.858h37.489a5.866,5.866,0,0,1,5.858,5.858V25.337a1.172,1.172,0,1,0,2.343,0V11.28a8.211,8.211,0,0,0-8.2-8.2" transform="translate(732.636 2057.733)" fill="#3955a2"/>
    <path id="Path_69030" data-name="Path 69030" d="M327.247,15.785a1.171,1.171,0,0,0,1.172-1.172V8.755A3.514,3.514,0,0,0,324.9,5.242H287.415A3.512,3.512,0,0,0,283.9,8.755V32.186a3.514,3.514,0,0,0,3.513,3.515H324.9a3.516,3.516,0,0,0,3.515-3.515V19.3a1.172,1.172,0,0,0-2.343,0V32.186a1.171,1.171,0,0,1-1.172,1.172H287.415a1.172,1.172,0,0,1-1.172-1.172V8.755a1.174,1.174,0,0,1,1.172-1.172H324.9a1.172,1.172,0,0,1,1.172,1.172v5.858a1.171,1.171,0,0,0,1.172,1.172" transform="translate(735.158 2060.256)" fill="#3955a2"/>
  </g>
</svg>
