<svg xmlns="http://www.w3.org/2000/svg" width="61.794" height="61.792" viewBox="0 0 61.794 61.792">
  <g id="Group_59753" data-name="Group 59753" transform="translate(-404.209 -2054.145)">
    <path id="Path_69006" data-name="Path 69006" d="M61.63,20.734A36.841,36.841,0,0,0,52.361,10.8a1.03,1.03,0,1,0-1.221,1.659,34.673,34.673,0,0,1,8.394,8.832A34.432,34.432,0,0,1,41.961,34.828a17.445,17.445,0,0,0-.178-27.214,33.953,33.953,0,0,1,5.562,2.417,1.03,1.03,0,0,0,.988-1.808A36.526,36.526,0,0,0,.161,20.734a1.032,1.032,0,0,0,0,1.107A36.841,36.841,0,0,0,9.43,31.779a1.03,1.03,0,1,0,1.239-1.646l-.017-.013a34.646,34.646,0,0,1-8.394-8.834,34.434,34.434,0,0,1,17.57-13.54,17.7,17.7,0,0,0-2.865,2.969,1.029,1.029,0,1,0,1.616,1.276l.024-.03A15.321,15.321,0,0,1,29.8,5.9c.645-.022,1.293-.032,1.943-.019a15.437,15.437,0,0,1,.747,30.77c-.81.041-1.624.056-2.441.041a15.441,15.441,0,0,1-13.4-21.4,1.03,1.03,0,1,0-1.9-.8,17.481,17.481,0,0,0,5.232,20.459,34.263,34.263,0,0,1-5.542-2.41,1.029,1.029,0,0,0-.988,1.806A35.947,35.947,0,0,0,30.74,38.763,36.629,36.629,0,0,0,61.634,21.84a1.028,1.028,0,0,0,0-1.107" transform="translate(404.21 2058.605)" fill="#3955a2"/>
    <path id="Path_69007" data-name="Path 69007" d="M25.473,20.547a1.03,1.03,0,0,0,1.774,1.046A9.279,9.279,0,1,0,23.97,24.87a1.03,1.03,0,0,0-1.016-1.791l-.028.015a7.209,7.209,0,1,1-.052-12.442,3.07,3.07,0,1,0,2.67,2.737,7.188,7.188,0,0,1-.071,7.158m-2.265-6.142a1.052,1.052,0,0,1-1.455,0,1.03,1.03,0,1,1,1.46,0Z" transform="translate(415.836 2063)" fill="#3955a2"/>
    <path id="Path_69008" data-name="Path 69008" d="M41.752,24.727H6.737a1.031,1.031,0,0,0-1.031,1.031v2.06a5.158,5.158,0,0,0,5.15,5.15H37.631a5.158,5.158,0,0,0,5.15-5.15v-2.06a1.03,1.03,0,0,0-1.029-1.031m-1.031,3.09a3.091,3.091,0,0,1-3.09,3.09H10.856a3.091,3.091,0,0,1-3.09-3.09V26.787H40.721Z" transform="translate(410.862 2082.97)" fill="#3955a2"/>
    <path id="Path_69009" data-name="Path 69009" d="M14.822,6.179a1.03,1.03,0,0,0,1.029-1.031V1.029a1.031,1.031,0,0,0-2.062,0V5.148a1.031,1.031,0,0,0,1.033,1.031" transform="translate(420.284 2054.145)" fill="#3955a2"/>
    <path id="Path_69010" data-name="Path 69010" d="M18.163,6.552A1.029,1.029,0,0,0,19.545,6.1l.006-.009,2.06-4.121a1.031,1.031,0,0,0-1.845-.92l-2.06,4.119a1.032,1.032,0,0,0,.453,1.386l0,0" transform="translate(424.72 2054.699)" fill="#3955a2"/>
    <path id="Path_69011" data-name="Path 69011" d="M22.428,7.052a1.027,1.027,0,0,0,.858-.459L25.345,3.5a1.03,1.03,0,1,0-1.713-1.143l-2.06,3.09a1.029,1.029,0,0,0,.855,1.6" transform="translate(429.155 2056.363)" fill="#3955a2"/>
    <path id="Path_69012" data-name="Path 69012" d="M25.758,8.4a1.025,1.025,0,0,0,.57-.173l3.09-2.06a1.03,1.03,0,1,0-1.143-1.713l-3.088,2.06A1.03,1.03,0,0,0,25.758,8.4" transform="translate(433.034 2059.134)" fill="#3955a2"/>
    <path id="Path_69013" data-name="Path 69013" d="M11.2,6.086a1.03,1.03,0,0,0,1.843-.92l-2.06-4.119a1.03,1.03,0,0,0-1.843.92Z" transform="translate(414.742 2054.699)" fill="#3955a2"/>
    <path id="Path_69014" data-name="Path 69014" d="M7.463,6.593A1.03,1.03,0,1,0,9.176,5.45L7.117,2.361A1.029,1.029,0,1,0,5.4,3.5Z" transform="translate(410.306 2056.362)" fill="#3955a2"/>
    <path id="Path_69015" data-name="Path 69015" d="M4.975,8.226A1.029,1.029,0,0,0,6.116,6.513l-3.09-2.06A1.029,1.029,0,0,0,1.884,6.167Z" transform="translate(405.873 2059.134)" fill="#3955a2"/>
    <path id="Path_69016" data-name="Path 69016" d="M15.85,26.073V21.954a1.03,1.03,0,1,0-2.06,0v4.119a1.03,1.03,0,1,0,2.06,0" transform="translate(420.285 2078.535)" fill="#3955a2"/>
    <path id="Path_69017" data-name="Path 69017" d="M17.672,27.665a1.028,1.028,0,0,0,.884-.5l3.09-5.148A1.031,1.031,0,0,0,19.9,20.923l-.017.032-3.09,5.15a1.03,1.03,0,0,0,.881,1.559" transform="translate(423.612 2077.972)" fill="#3955a2"/>
    <path id="Path_69018" data-name="Path 69018" d="M26.96,19.373l-7.21,8.238A1.031,1.031,0,1,0,21.3,28.969l7.21-8.238a1.031,1.031,0,1,0-1.551-1.358" transform="translate(426.936 2076.317)" fill="#3955a2"/>
    <path id="Path_69019" data-name="Path 69019" d="M13.625,27.648a1.029,1.029,0,0,0,.881-1.559l-3.09-5.15A1.03,1.03,0,0,0,9.651,22l3.09,5.148a1.028,1.028,0,0,0,.884.5" transform="translate(415.3 2077.989)" fill="#3955a2"/>
    <path id="Path_69020" data-name="Path 69020" d="M12.972,29.3a1.032,1.032,0,0,0,.775-1.709l-7.21-8.238a1.03,1.03,0,0,0-1.544,1.358L12.2,28.945a1.04,1.04,0,0,0,.771.351" transform="translate(409.775 2076.342)" fill="#3955a2"/>
  </g>
</svg>
