<svg id="Group_159" data-name="Group 159" xmlns="http://www.w3.org/2000/svg" xmlns:xlink="http://www.w3.org/1999/xlink" width="166.317" height="44.219" viewBox="0 0 166.317 44.219">
  <defs>
    <clipPath id="clip-path">
      <rect id="Rectangle_1" data-name="Rectangle 1" width="166.317" height="44.219" fill="none"/>
    </clipPath>
  </defs>
  <path id="Path_1" data-name="Path 1" d="M207.156,59.75h13.032l-4.112,29.887H203.044Z" transform="translate(-158.341 -46.595)" fill="#fff"/>
  <path id="Path_2" data-name="Path 2" d="M226.439,0l-1,7.28h13.032l1-7.28Z" transform="translate(-175.803 0)" fill="#fc942a"/>
  <path id="Path_3" data-name="Path 3" d="M25.862,0,17.937,7.085,18.914,0H5.933L2.072,28.011h7.2L3.117,33.518,1.06,35.356,0,43.042H12.981l2.107-15.283,5.972,7.085H31.192L32.98,21.862H24.864l-1.538-1.824-2.208-2.617L24.047,14.8l2.041-1.824H42.4L44.192,0Z" transform="translate(0 0)" fill="#fff"/>
  <g id="Group_2" data-name="Group 2">
    <g id="Group_1" data-name="Group 1" clip-path="url(#clip-path)">
      <path id="Path_4" data-name="Path 4" d="M490.508,61.335c-2.57-3.562-6.716-5.37-12.321-5.37A19.555,19.555,0,0,0,466.119,59.9,17.935,17.935,0,0,0,459.008,72c-.707,4.861.506,8.843,3.6,11.838,2.756,2.671,6.685,4.024,11.678,4.024a19.32,19.32,0,0,0,13.689-5.1,14.709,14.709,0,0,0,3.563-4.989l.189-.45H481.481a6.6,6.6,0,0,1-6.145,3.3q-5.358,0-5.308-5.466l22.491.037.269-1.856c.71-4.889-.057-8.928-2.28-12.009M470.33,68.8q1.649-5.467,7.066-5.466,5.358,0,5.308,5.466Z" transform="translate(-357.798 -43.643)" fill="#fff"/>
      <path id="Path_5" data-name="Path 5" d="M657.458,57.2l-1.3,8.992-1.351-.419a12.1,12.1,0,0,0-3.548-.573,6.707,6.707,0,0,0-4.185,1.249,5.965,5.965,0,0,0-.811.739,11.922,11.922,0,0,0-2.531,6.491l-1.792,13H629.8L633.919,56.8H644.49l-.7,5.075a9.312,9.312,0,0,1,2.376-3.359,9.433,9.433,0,0,1,3.794-2,12.2,12.2,0,0,1,3.869-.515,8.867,8.867,0,0,1,3.591,1.17.311.311,0,0,0,.037.02" transform="translate(-491.141 -43.667)" fill="#fff"/>
      <path id="Path_6" data-name="Path 6" d="M316.725,74.225l8.366,15.642H311.635l-2.261-4.47-.011-.025c-.168-.371-.372-.919-.616-1.657-.492.733-.962,1.386-1.405,1.955l-3.166,4.2H290.384l12.722-15.91-7.468-13.871h13.5l1.518,3.178a12.775,12.775,0,0,1,.65,1.5c.607-.9,1.055-1.541,1.349-1.95l2.017-2.732h13.5Z" transform="translate(-226.451 -46.857)" fill="#fff"/>
      <path id="Path_7" data-name="Path 7" d="M490.508,61.335c-2.57-3.562-6.716-5.37-12.321-5.37A19.555,19.555,0,0,0,466.119,59.9,17.935,17.935,0,0,0,459.008,72c-.707,4.861.506,8.843,3.6,11.838,2.756,2.671,6.685,4.024,11.678,4.024a19.32,19.32,0,0,0,13.689-5.1,14.709,14.709,0,0,0,3.563-4.989l.189-.45H481.481a6.6,6.6,0,0,1-6.145,3.3q-5.358,0-5.308-5.466l22.491.037.269-1.856c.71-4.889-.057-8.928-2.28-12.009M470.33,68.8q1.649-5.467,7.066-5.466,5.358,0,5.308,5.466Z" transform="translate(-357.798 -43.643)" fill="#fff"/>
      <path id="Path_8" data-name="Path 8" d="M657.458,57.2l-1.3,8.992-1.351-.419a12.1,12.1,0,0,0-3.548-.573,6.707,6.707,0,0,0-4.185,1.249,5.965,5.965,0,0,0-.811.739,11.922,11.922,0,0,0-2.531,6.491l-1.792,13H629.8L633.919,56.8H644.49l-.7,5.075a9.312,9.312,0,0,1,2.376-3.359,9.433,9.433,0,0,1,3.794-2,12.2,12.2,0,0,1,3.869-.515,8.867,8.867,0,0,1,3.591,1.17.311.311,0,0,0,.037.02" transform="translate(-491.141 -43.667)" fill="#fff"/>
    </g>
  </g>
</svg>
