<svg xmlns="http://www.w3.org/2000/svg" width="31.984" height="31.962" viewBox="0 0 31.984 31.962">
  <path id="Path_49109" data-name="Path 49109" d="M37.7,36.835a25,25,0,0,0-4.085-2.488V31.141H34.3a2.931,2.931,0,0,0,2.785-3.052,3.229,3.229,0,0,0-.167-1.034,3.235,3.235,0,0,0,0-4.741,3.229,3.229,0,0,0,.167-1.034,3.077,3.077,0,0,0-1.764-2.841,2.324,2.324,0,0,0-4.636,0,3.075,3.075,0,0,0-1.77,2.841,3.229,3.229,0,0,0,.167,1.034,3.235,3.235,0,0,0,0,4.741,3.229,3.229,0,0,0-.167,1.034A2.931,2.931,0,0,0,31.7,31.141h.681v2.643a25.767,25.767,0,0,0-9.285-2.012v-3.1h.681a2.931,2.931,0,0,0,2.785-3.052,3.229,3.229,0,0,0-.167-1.034,3.235,3.235,0,0,0,0-4.741,3.229,3.229,0,0,0,.167-1.034,3.077,3.077,0,0,0-1.764-2.841,2.324,2.324,0,0,0-4.636,0,3.075,3.075,0,0,0-1.77,2.841,3.229,3.229,0,0,0,.167,1.034,3.235,3.235,0,0,0,0,4.741,3.229,3.229,0,0,0-.167,1.034,2.931,2.931,0,0,0,2.785,3.052h.681v3.114A25.261,25.261,0,0,0,12.569,33.8V31.147h.681A2.931,2.931,0,0,0,16.035,28.1a3.229,3.229,0,0,0-.167-1.034,3.235,3.235,0,0,0,0-4.741,3.229,3.229,0,0,0,.167-1.034,3.077,3.077,0,0,0-1.764-2.841,2.425,2.425,0,0,0-2.321-2.154,2.413,2.413,0,0,0-2.315,2.154,3.075,3.075,0,0,0-1.77,2.841,3.229,3.229,0,0,0,.167,1.034,3.235,3.235,0,0,0,0,4.741A3.229,3.229,0,0,0,7.864,28.1a2.931,2.931,0,0,0,2.785,3.052h.681v3.213a25.46,25.46,0,0,0-4.085,2.482.633.633,0,0,0-.217.693.619.619,0,0,0,.588.421H28.663a.619.619,0,0,0,0-1.238H9.616A24.292,24.292,0,0,1,22.473,33a24.567,24.567,0,0,1,10.269,2.3c.006,0,.012.006.025.012a23.616,23.616,0,0,1,2.575,1.405h-4.2a.619.619,0,0,0,0,1.238h6.19a.627.627,0,0,0,.588-.421.614.614,0,0,0-.217-.693Zm-6-6.933a1.7,1.7,0,0,1-1.547-1.814,2.013,2.013,0,0,1,.235-.953.621.621,0,0,0-.235-.829,1.951,1.951,0,0,1,0-3.244.615.615,0,0,0,.235-.829,2.013,2.013,0,0,1-.235-.953A1.772,1.772,0,0,1,31.4,19.5a.672.672,0,0,0,.483-.65A1.236,1.236,0,0,1,33,17.523,1.253,1.253,0,0,1,34.11,18.9a.622.622,0,0,0,.483.607,1.767,1.767,0,0,1,1.25,1.783,2.013,2.013,0,0,1-.235.953.621.621,0,0,0,.235.829,1.951,1.951,0,0,1,0,3.244.615.615,0,0,0-.235.829,2.013,2.013,0,0,1,.235.953A1.7,1.7,0,0,1,34.3,29.909h-.681v-1.6l1.058-1.058a.617.617,0,0,0-.873-.873l-.18.18V25.211l1.058-1.058a.617.617,0,1,0-.873-.873l-.18.18v-.984a.619.619,0,1,0-1.238,0v.984l-.18-.18a.617.617,0,1,0-.873.873L32.4,25.211v1.343l-.18-.18a.617.617,0,1,0-.873.873L32.4,28.306v1.6H31.72ZM21.173,27.427a1.7,1.7,0,0,1-1.547-1.814,2.013,2.013,0,0,1,.235-.953.621.621,0,0,0-.235-.829,1.951,1.951,0,0,1,0-3.244.615.615,0,0,0,.235-.829,2.013,2.013,0,0,1-.235-.953,1.772,1.772,0,0,1,1.25-1.783.672.672,0,0,0,.483-.65,1.236,1.236,0,0,1,1.114-1.325,1.253,1.253,0,0,1,1.114,1.374.622.622,0,0,0,.483.607,1.767,1.767,0,0,1,1.25,1.783,2.013,2.013,0,0,1-.235.953.621.621,0,0,0,.235.829,1.951,1.951,0,0,1,0,3.244.615.615,0,0,0-.235.829,2.013,2.013,0,0,1,.235.953,1.7,1.7,0,0,1-1.547,1.814h-.681v-1.6l1.058-1.058a.617.617,0,0,0-.873-.873l-.18.18V22.735l1.058-1.058a.617.617,0,0,0-.873-.873l-.18.18V20a.619.619,0,0,0-1.238,0v.984l-.18-.18a.617.617,0,0,0-.873.873l1.058,1.058v1.343l-.18-.18a.617.617,0,0,0-.873.873l1.058,1.058v1.6H21.2ZM10.65,29.9A1.7,1.7,0,0,1,9.1,28.089a2.013,2.013,0,0,1,.235-.953.621.621,0,0,0-.235-.829,1.951,1.951,0,0,1,0-3.244.615.615,0,0,0,.235-.829A2.013,2.013,0,0,1,9.1,21.28a1.772,1.772,0,0,1,1.25-1.783.672.672,0,0,0,.483-.65,1.236,1.236,0,0,1,1.114-1.325A1.253,1.253,0,0,1,13.064,18.9a.622.622,0,0,0,.483.607,1.767,1.767,0,0,1,1.25,1.783,2.013,2.013,0,0,1-.235.953.621.621,0,0,0,.235.829,1.951,1.951,0,0,1,0,3.244.615.615,0,0,0-.235.829,2.013,2.013,0,0,1,.235.953,1.7,1.7,0,0,1-1.547,1.814h-.681v-1.6l1.058-1.058a.617.617,0,1,0-.873-.873l-.18.18V25.211l1.058-1.058a.617.617,0,1,0-.873-.873l-.18.18v-.984a.619.619,0,1,0-1.238,0v.984l-.18-.18a.617.617,0,1,0-.873.873l1.058,1.058v1.343l-.18-.18a.617.617,0,0,0-.873.873l1.058,1.058v1.6h-.681ZM7,13.19a1.837,1.837,0,0,1,.093-.576,2.4,2.4,0,0,1,.1-1.622,2.483,2.483,0,0,1,3.244-1.325,1.747,1.747,0,0,1,.285.142,2.474,2.474,0,0,1,3.646,1.616,1.857,1.857,0,0,1-.563,3.627H12.563a.619.619,0,0,1,0-1.238H13.8a.619.619,0,1,0,0-1.238.621.621,0,0,1-.619-.619,1.237,1.237,0,0,0-2.061-.922.62.62,0,0,1-.842-.012,1.158,1.158,0,0,0-.322-.21,1.242,1.242,0,0,0-1.628.662,1.139,1.139,0,0,0,0,.922.612.612,0,0,1-.025.52.611.611,0,0,0-.068.272.621.621,0,0,0,.619.619h1.238a.619.619,0,1,1,0,1.238H8.855A1.862,1.862,0,0,1,7,13.19Zm24.76-3.714V8.857A1.862,1.862,0,0,1,33.614,7a1.835,1.835,0,0,1,1.238.477A1.835,1.835,0,0,1,36.09,7a1.862,1.862,0,0,1,1.857,1.857v.619a.619.619,0,0,1-1.238,0V8.857a.619.619,0,1,0-1.238,0,.619.619,0,1,1-1.238,0,.619.619,0,0,0-1.238,0v.619a.619.619,0,0,1-1.238,0Zm-6.19,3.095v-.619a1.862,1.862,0,0,1,1.857-1.857,1.835,1.835,0,0,1,1.238.477,1.835,1.835,0,0,1,1.238-.477,1.862,1.862,0,0,1,1.857,1.857v.619a.619.619,0,1,1-1.238,0v-.619a.619.619,0,0,0-1.238,0,.619.619,0,0,1-1.238,0,.619.619,0,1,0-1.238,0v.619a.619.619,0,1,1-1.238,0Zm-7.428-.619a2.476,2.476,0,1,0-2.476-2.476A2.475,2.475,0,0,0,18.14,11.952Zm0-3.714A1.238,1.238,0,1,1,16.9,9.476,1.242,1.242,0,0,1,18.14,8.238Z" transform="translate(-6.486 -6.5)" fill="#fc942a" stroke="rgba(0,0,0,0)" stroke-miterlimit="10" stroke-width="1"/>
</svg>
