<svg xmlns="http://www.w3.org/2000/svg" width="29.418" height="30.175" viewBox="0 0 29.418 30.175">
  <path id="Path_49108" data-name="Path 49108" d="M41.763,28.152a3.6,3.6,0,0,0,1.088-2.7l-.282-9.944a1.964,1.964,0,0,0-1.949-1.757h-.029c-.488.008-2.081.276-2.07,3.391l.021,5.4a2.56,2.56,0,0,1-.072.624,1.96,1.96,0,0,0-.267-.33,1.825,1.825,0,0,0-2.513-.017.462.462,0,0,0-.044.046,23.329,23.329,0,0,1-2.815,2.67c-.3.254-.585.493-.818.7a3.9,3.9,0,0,0-1.075,3.1l.006,3.956-.453,0h-.01a1.16,1.16,0,0,0-1.157,1.148l-.013,1.5a1.159,1.159,0,0,0,1.148,1.168l7.817.067h.01a1.159,1.159,0,0,0,1.158-1.148l.013-1.5a1.159,1.159,0,0,0-1.148-1.168l-.906-.008v-.835Zm-3.247,6.362-.013,1.5a.22.22,0,0,1-.217.215h0l-7.817-.067a.22.22,0,0,1-.215-.219l.013-1.5a.219.219,0,0,1,.217-.215h0L38.3,34.3A.22.22,0,0,1,38.516,34.514ZM31.887,33.3l-.006-3.965a3.034,3.034,0,0,1,.764-2.4c.221-.2.486-.423.794-.682a24.251,24.251,0,0,0,2.9-2.756.872.872,0,0,1,1.2,0,.808.808,0,0,1,.064,1.1c-.509.585-1.02,1.081-1.555,1.6-.231.225-.471.457-.718.7a.471.471,0,1,0,.665.665c.242-.242.479-.472.708-.695.511-.5,1-.971,1.493-1.526a.471.471,0,0,0,.094-.094q.03-.04.058-.08.151-.175.3-.361a3.481,3.481,0,0,0,.832-2.282l-.021-5.4c-.006-1.52.422-2.434,1.144-2.446a1.033,1.033,0,0,1,1.022.842l.282,9.944a2.644,2.644,0,0,1-.813,2.01l-4.5,4.5a.471.471,0,0,0-.138.333v1.022Zm-1.112,1.732a.468.468,0,1,1,.262.607A.468.468,0,0,1,30.774,35.031ZM27.617,33.62a1.151,1.151,0,0,0-.821-.333l-.453,0,.006-3.956a3.9,3.9,0,0,0-1.075-3.1c-.233-.21-.517-.449-.818-.7a23.337,23.337,0,0,1-2.815-2.67.476.476,0,0,0-.044-.046,1.825,1.825,0,0,0-2.513.017,1.958,1.958,0,0,0-.267.33,2.561,2.561,0,0,1-.072-.624l.021-5.4c.012-3.115-1.581-3.383-2.07-3.391a1.964,1.964,0,0,0-1.977,1.757l-.282,9.944a3.6,3.6,0,0,0,1.088,2.7l4.36,4.36v.835l-.906.008a1.159,1.159,0,0,0-1.148,1.168l.013,1.5A1.159,1.159,0,0,0,19,37.174h.01l7.817-.067a1.159,1.159,0,0,0,1.148-1.168l-.013-1.5A1.15,1.15,0,0,0,27.617,33.62Zm-6.79-1.3a.471.471,0,0,0-.138-.333l-4.5-4.5a2.644,2.644,0,0,1-.813-2.01l.282-9.944a1.029,1.029,0,0,1,1.008-.842h.014c.722.012,1.149.926,1.144,2.446l-.021,5.4a3.481,3.481,0,0,0,.832,2.282q.152.187.3.361.028.04.058.08a.472.472,0,0,0,.095.094c.493.554.982,1.03,1.493,1.526.229.222.466.452.708.695a.471.471,0,0,0,.665-.665c-.247-.247-.486-.479-.718-.7-.535-.52-1.046-1.016-1.555-1.6a.808.808,0,0,1,.064-1.1.872.872,0,0,1,1.2,0,24.262,24.262,0,0,0,2.9,2.755c.308.259.573.483.794.682a3.034,3.034,0,0,1,.764,2.4L25.4,33.3l-4.576.039Zm5.994,3.85L19,36.233a.217.217,0,0,1-.219-.215l-.013-1.5a.22.22,0,0,1,.215-.219l7.817-.067h0a.219.219,0,0,1,.217.215l.013,1.5a.22.22,0,0,1-.215.219Zm-.306-1.135a.468.468,0,1,1-.607-.262A.468.468,0,0,1,26.514,35.031ZM20.589,17.863l1.08.416a7.186,7.186,0,0,0,.684,1.65l-.47,1.058a.47.47,0,0,0,.1.524L23.49,23.02a.47.47,0,0,0,.524.1l1.059-.47a7.184,7.184,0,0,0,1.65.684l.416,1.08a.47.47,0,0,0,.439.3h2.135a.471.471,0,0,0,.439-.3l.416-1.08a7.182,7.182,0,0,0,1.65-.684l1.058.47a.47.47,0,0,0,.524-.1l1.509-1.509a.471.471,0,0,0,.1-.524l-.47-1.059a7.186,7.186,0,0,0,.684-1.65l1.08-.416a.47.47,0,0,0,.3-.439V15.289a.471.471,0,0,0-.3-.439l-1.08-.416a7.183,7.183,0,0,0-.684-1.65l.47-1.058a.47.47,0,0,0-.1-.524L33.8,9.693a.471.471,0,0,0-.524-.1l-1.059.47a7.183,7.183,0,0,0-1.65-.684L30.151,8.3a.471.471,0,0,0-.439-.3H27.577a.471.471,0,0,0-.439.3l-.416,1.08a7.183,7.183,0,0,0-1.65.684L24.014,9.6a.471.471,0,0,0-.524.1L21.98,11.2a.47.47,0,0,0-.1.524l.47,1.059a7.186,7.186,0,0,0-.684,1.65l-1.08.416a.471.471,0,0,0-.3.439v2.135a.471.471,0,0,0,.3.439Zm.64-2.251,1.005-.387a.471.471,0,0,0,.289-.33,6.248,6.248,0,0,1,.76-1.833.471.471,0,0,0,.029-.438l-.438-.985,1.053-1.052.985.438a.47.47,0,0,0,.438-.029,6.25,6.25,0,0,1,1.833-.76.47.47,0,0,0,.33-.289L27.9,8.941h1.488l.387,1.005a.47.47,0,0,0,.33.289,6.251,6.251,0,0,1,1.833.76.47.47,0,0,0,.438.029l.985-.438,1.052,1.052-.437.985a.47.47,0,0,0,.029.438,6.248,6.248,0,0,1,.76,1.833.47.47,0,0,0,.289.33l1,.387V17.1l-1.005.387a.47.47,0,0,0-.289.33,6.252,6.252,0,0,1-.76,1.833.471.471,0,0,0-.029.438l.438.985-1.052,1.052-.985-.437a.47.47,0,0,0-.438.029,6.247,6.247,0,0,1-1.833.76.47.47,0,0,0-.33.289l-.387,1H27.9l-.387-1.005a.47.47,0,0,0-.33-.289,6.252,6.252,0,0,1-1.833-.76.471.471,0,0,0-.438-.029l-.985.438-1.052-1.052.438-.985a.471.471,0,0,0-.029-.438,6.248,6.248,0,0,1-.76-1.833.471.471,0,0,0-.289-.33l-1-.387ZM28.644,21.1A4.739,4.739,0,1,0,23.9,16.356,4.745,4.745,0,0,0,28.644,21.1Zm-1.69-1.339a3.809,3.809,0,0,1-.723-.469V16.606h.723Zm.941.324V15.851h1.311v4.261a3.8,3.8,0,0,1-1.311-.033Zm2.252-3.474h.723v2.825a3.8,3.8,0,0,1-.723.413Zm-1.5-4.048a3.8,3.8,0,0,1,3.167,5.892V16.136a.471.471,0,0,0-.471-.471H30.147v-.285a.471.471,0,0,0-.471-.471h-.656v-.382a.471.471,0,1,0-.941,0v.382h-.655a.471.471,0,0,0-.471.471v.285H25.76a.471.471,0,0,0-.471.471v2a3.8,3.8,0,0,1,3.355-5.577Z" transform="translate(-13.935 -7.5)" fill="#fc942a" stroke="rgba(0,0,0,0)" stroke-miterlimit="10" stroke-width="1"/>
</svg>
