<svg xmlns="http://www.w3.org/2000/svg" width="29.558" height="35.363" viewBox="0 0 29.558 35.363">
  <path id="Path_5913" data-name="Path 5913" d="M77.957,17.168a4.8,4.8,0,0,0,1.228-4.655.487.487,0,0,0-.813-.215l-2.449,2.449L74.1,14.258l-.487-1.819L76.064,9.99a.487.487,0,0,0-.215-.813,4.782,4.782,0,0,0-5.931,5.695l-1.877,1.876a8.634,8.634,0,0,0-2.163-.807v-.725a.89.89,0,0,0-.789-.884,10.372,10.372,0,0,0-2.265,0,.889.889,0,0,0-.787.883v.725a8.63,8.63,0,0,0-2.706,1.122l-.511-.511a.883.883,0,0,0-1.183-.068,10.2,10.2,0,0,0-1.6,1.6.89.89,0,0,0,.068,1.181l.512.514a8.615,8.615,0,0,0-1.121,2.7h-.725a.89.89,0,0,0-.883.791,10.311,10.311,0,0,0,0,2.263.889.889,0,0,0,.883.787h.725a8.615,8.615,0,0,0,1.122,2.705l-.513.514a.886.886,0,0,0-.067,1.182,10.355,10.355,0,0,0,.854.941,5.2,5.2,0,0,0-1.95,3.987V35.7a3.855,3.855,0,0,0-.685-.062,3.806,3.806,0,0,0-3.349,1.951.487.487,0,0,0,.423.727h2.649l.678,1.172-.678,1.172H51.329a.487.487,0,0,0-.423.727,3.806,3.806,0,0,0,3.349,1.951,3.85,3.85,0,0,0,3.238-1.765H75.141a2.084,2.084,0,1,0,0-4.168H73.13V35.655A5.211,5.211,0,0,0,71.1,31.6a9.9,9.9,0,0,0,.78-.869.883.883,0,0,0-.063-1.185l-.513-.513a8.625,8.625,0,0,0,1.122-2.706l.73,0a.894.894,0,0,0,.879-.791,10.314,10.314,0,0,0,0-2.263.89.89,0,0,0-.883-.789h-.725a8.645,8.645,0,0,0-.807-2.163l1.877-1.877a4.78,4.78,0,0,0,4.465-1.276ZM76.252,39.486A1.112,1.112,0,0,1,75.141,40.6H57.215a.486.486,0,0,0-.428.255,2.878,2.878,0,0,1-2.533,1.51,2.845,2.845,0,0,1-1.922-.731h1.926a.487.487,0,0,0,.421-.243l.959-1.659a.486.486,0,0,0,0-.487l-.959-1.659a.487.487,0,0,0-.421-.243H52.333a2.845,2.845,0,0,1,1.922-.731,2.878,2.878,0,0,1,2.533,1.51.487.487,0,0,0,.428.255H75.141a1.112,1.112,0,0,1,1.111,1.111Zm-4.1-3.831V37.4H69.73V35.327a.487.487,0,1,0-.973,0V37.4H59.313V35.327a.487.487,0,1,0-.973,0V37.4h-.848a3.85,3.85,0,0,0-1.579-1.389v-.358a4.306,4.306,0,0,1,1.959-3.515.482.482,0,0,0,.1-.067,5.761,5.761,0,0,1,3.132-.928,3.663,3.663,0,0,0,5.863,0,5.777,5.777,0,0,1,3.054.877.48.48,0,0,0,.1.062,4.323,4.323,0,0,1,2.042,3.571Zm-8.52-16.217c.131-.01.264-.017.4-.017s.266.007.4.017v3.19h-.8v-3.19ZM63.15,23.6h1.769a.487.487,0,0,0,.487-.487V19.606A5.187,5.187,0,0,1,69.214,24.6a.493.493,0,0,0,0,.061H58.85a.492.492,0,0,0,0-.061,5.188,5.188,0,0,1,3.81-4.993v3.508a.487.487,0,0,0,.487.487Zm-4.966,2.033h11.7v.8h-11.7ZM67.44,27.4c-.215,2.376-1.674,4.235-3.405,4.235s-3.192-1.859-3.407-4.235ZM73,17.557l-2.336,2.336a.487.487,0,0,0-.075.592,7.671,7.671,0,0,1,.894,2.267.88.88,0,0,0,.868.7h.718a9.378,9.378,0,0,1,0,1.9l-.723,0a.883.883,0,0,0-.862.7,7.656,7.656,0,0,1-1.043,2.512.889.889,0,0,0,.12,1.107l.507.507a8.979,8.979,0,0,1-.8.862,6.709,6.709,0,0,0-2.665-.836,6.981,6.981,0,0,0,.807-2.8H70.37a.487.487,0,0,0,.487-.487V25.147a.487.487,0,0,0-.487-.487h-.187a.493.493,0,0,0,0-.061,6.153,6.153,0,0,0-12.306,0,.492.492,0,0,0,0,.061H57.7a.487.487,0,0,0-.487.487v1.769a.487.487,0,0,0,.487.487h1.954a6.978,6.978,0,0,0,.808,2.8A6.694,6.694,0,0,0,57.7,31.1a9.412,9.412,0,0,1-.856-.916l.506-.508a.886.886,0,0,0,.121-1.109,7.652,7.652,0,0,1-1.041-2.511.884.884,0,0,0-.867-.7h-.718a9.371,9.371,0,0,1,0-1.9h.718a.884.884,0,0,0,.867-.7,7.648,7.648,0,0,1,1.041-2.51.877.877,0,0,0-.12-1.107l-.508-.509a9.235,9.235,0,0,1,1.341-1.339l.51.51a.885.885,0,0,0,1.107.116,7.658,7.658,0,0,1,2.507-1.04.88.88,0,0,0,.7-.868V15.29a9.411,9.411,0,0,1,1.9,0v.718a.879.879,0,0,0,.7.867,7.667,7.667,0,0,1,2.271.895.487.487,0,0,0,.592-.074L70.8,15.362a.487.487,0,0,0,.122-.484A3.807,3.807,0,0,1,74.7,9.98L72.73,11.949a.487.487,0,0,0-.126.47l.632,2.362a.486.486,0,0,0,.344.344l2.362.634a.487.487,0,0,0,.47-.126l1.969-1.969a3.806,3.806,0,0,1-4.9,3.771.487.487,0,0,0-.484.122Z" transform="translate(-50.332 -8.472)" fill="#fc942a" stroke="rgba(0,0,0,0)" stroke-miterlimit="10" stroke-width="1"/>
</svg>
