<svg xmlns="http://www.w3.org/2000/svg" width="31.477" height="31.5" viewBox="0 0 31.477 31.5">
  <g id="Group_180" data-name="Group 180" transform="translate(-1.045 -1)">
    <path id="Path_45" data-name="Path 45" d="M26.655,23.682a4.062,4.062,0,1,0-5.31-6.055v-2.4h1.039a4.063,4.063,0,0,0,.507-8.094c0-.012,0-.023,0-.035A6.09,6.09,0,0,0,11.859,3.532,5.06,5.06,0,0,0,4.7,7.118a4.063,4.063,0,0,0-.63,7.971V29.96a2.543,2.543,0,0,0,2.54,2.54H32.522V31.484a8.138,8.138,0,0,0-5.868-7.8Zm.187,5.707-1.677,2.1h-.079l2.061-6.558a6.991,6.991,0,0,1,.651.315l-.322,1.934-1.16,1.16Zm-3.22,2.1-1.677-2.1.526-1.053-1.16-1.16-.322-1.934a7.12,7.12,0,0,1,.651-.315L23.7,31.484Zm-2.277-7.531v-.967a4.057,4.057,0,0,0,.787.7A7.987,7.987,0,0,0,21.345,23.953Zm4.836.654L24.393,30.3l-1.788-5.689a6.869,6.869,0,0,1,3.576,0Zm-1.788-7.35a3.048,3.048,0,1,1-3.048,3.048A3.051,3.051,0,0,1,24.393,17.258ZM4.071,13.7v.321A3.047,3.047,0,1,1,8.032,10.29L9.005,10A4.091,4.091,0,0,0,5.736,7.149a4.055,4.055,0,0,1,5.6-2.746A6.048,6.048,0,0,0,10.7,7.1h1.016a5.081,5.081,0,0,1,10.161,0c0,.014,0,.028,0,.042A4.084,4.084,0,0,0,18.488,10l.973.29a3.049,3.049,0,1,1,2.922,3.92H21.345V13.7a2.543,2.543,0,0,0-2.54-2.54H6.611a2.543,2.543,0,0,0-2.54,2.54Zm2.54,17.782A1.526,1.526,0,0,1,5.087,29.96V13.7a1.526,1.526,0,0,1,1.524-1.524H18.8A1.526,1.526,0,0,1,20.329,13.7V24.455a8.182,8.182,0,0,0-1.016.694V14.21A1.017,1.017,0,0,0,18.3,13.194H7.119A1.017,1.017,0,0,0,6.1,14.21V29.452a1.017,1.017,0,0,0,1.016,1.016h9.216a8.08,8.08,0,0,0-.071,1.016Zm9.921-2.032H7.119V26.4H18.058a8.1,8.1,0,0,0-1.526,3.048ZM18.3,25.387H15.248V20.306H18.3Zm0-6.1H15.248V14.21H18.3Zm-4.065,0H7.119V14.21h7.113ZM7.119,20.306h7.113v5.081H7.119Zm12.942,5.549.3,1.808.872.872-.49.98,1.575,1.969h-2.5V28.436H18.8v3.048H17.28a7.1,7.1,0,0,1,2.781-5.629Zm9.92,5.629V28.436H28.966v3.048h-2.5l1.575-1.969-.49-.98.872-.872.3-1.808a7.1,7.1,0,0,1,2.781,5.629Z" fill="#fc942a"/>
    <path id="Path_46" data-name="Path 46" d="M19.065,29H15v3.048h4.065Zm-1.016,2.032H16.016V30.016h2.032Z" transform="translate(-6.865 -13.774)" fill="#fc942a"/>
    <path id="Path_47" data-name="Path 47" d="M15,41v3.048h4.065V41Zm3.048,2.032H16.016V42.016h2.032Z" transform="translate(-6.865 -19.677)" fill="#fc942a"/>
    <path id="Path_48" data-name="Path 48" d="M15,53h1.016v1.016H15Z" transform="translate(-6.865 -25.581)" fill="#fc942a"/>
    <path id="Path_49" data-name="Path 49" d="M19,53h1.016v1.016H19Z" transform="translate(-8.833 -25.581)" fill="#fc942a"/>
    <path id="Path_50" data-name="Path 50" d="M23,53h1.016v1.016H23Z" transform="translate(-10.8 -25.581)" fill="#fc942a"/>
    <path id="Path_51" data-name="Path 51" d="M31,41h1.016v1.016H31Z" transform="translate(-14.736 -19.677)" fill="#fc942a"/>
    <path id="Path_52" data-name="Path 52" d="M31,45h1.016v1.016H31Z" transform="translate(-14.736 -21.645)" fill="#fc942a"/>
    <path id="Path_53" data-name="Path 53" d="M31,29h1.016v1.016H31Z" transform="translate(-14.736 -13.774)" fill="#fc942a"/>
    <path id="Path_54" data-name="Path 54" d="M31,33h1.016v1.016H31Z" transform="translate(-14.736 -15.742)" fill="#fc942a"/>
    <path id="Path_55" data-name="Path 55" d="M28.065,6.016V5A4.069,4.069,0,0,0,24,9.065h1.016A3.051,3.051,0,0,1,28.065,6.016Z" transform="translate(-11.292 -1.968)" fill="#fc942a"/>
    <path id="Path_56" data-name="Path 56" d="M45.032,21H44.016A1.017,1.017,0,0,1,43,22.016v1.016A2.034,2.034,0,0,0,45.032,21Z" transform="translate(-20.639 -9.839)" fill="#fc942a"/>
  </g>
</svg>
